<svg xmlns="http://www.w3.org/2000/svg" viewBox="0 0 214.18 199"><defs><style>.cls-1{fill:#fff0af;}.cls-2,.cls-3,.cls-4{fill:none;stroke-miterlimit:10;stroke-width:20px;}.cls-2{stroke:#fa1996;}.cls-3{stroke:#ffbe9b;}.cls-4{stroke:#870aa0;}.cls-5{fill:#23c3ff;}</style></defs><g id="Lager_2" data-name="Lager 2"><g id="Lager_6" data-name="Lager 6"><circle class="cls-1" cx="121.18" cy="111" r="88"/><path class="cls-2" d="M92.21,89.93a45.53,45.53,0,0,1-36.46,18.24"/><path class="cls-3" d="M92.21,89.93a45.59,45.59,0,0,0,9.2-25.62"/><path class="cls-4" d="M55.75,16.67A45.75,45.75,0,0,1,101.5,62.42c0,.64-.07,1.26-.09,1.89"/><path class="cls-2" d="M55.75,108.17A45.72,45.72,0,0,1,10.09,64.31"/><path class="cls-2" d="M55.75,16.67A45.75,45.75,0,0,0,10,62.42c0,.64.07,1.26.09,1.89"/><circle class="cls-5" cx="197.68" cy="16.5" r="16.5"/></g></g></svg>